<?xml version="1.0" standalone="no"?>
<!DOCTYPE svg PUBLIC "-//W3C//DTD SVG 20010904//EN"
 "http://www.w3.org/TR/2001/REC-SVG-20010904/DTD/svg10.dtd">
<svg version="1.0" xmlns="http://www.w3.org/2000/svg"
 width="32.000000pt" height="32.000000pt" viewBox="0 0 32.000000 32.000000"
 preserveAspectRatio="xMidYMid meet">

<g transform="translate(0.000000,32.000000) scale(0.100000,-0.100000)"
fill="#000000" stroke="none">
<path d="M22 298 c-20 -20 -14 -38 23 -79 36 -40 49 -73 20 -49 -18 15 -21 13
-30 -23 -7 -26 7 -38 20 -17 18 30 52 -4 64 -64 4 -16 13 -32 20 -34 9 -3 11
0 7 9 -4 8 1 4 12 -8 11 -13 29 -23 39 -23 20 0 66 29 48 30 -5 0 -3 5 5 10 9
6 10 10 3 10 -7 0 -17 -9 -23 -20 -23 -42 -60 -8 -60 56 0 19 5 24 25 24 17 0
29 8 37 25 6 14 14 25 18 25 4 0 19 11 33 24 l27 25 -22 15 c-36 25 -75 20
-93 -11 -26 -49 -55 -77 -66 -66 -8 8 -7 18 1 34 7 13 9 21 5 17 -12 -11 -35
11 -35 33 0 12 -10 23 -25 29 -14 5 -25 16 -25 25 0 18 -12 19 -28 3z"/>
</g>
</svg>
